<svg xmlns="http://www.w3.org/2000/svg" xmlns:xlink="http://www.w3.org/1999/xlink" width="192" zoomAndPan="magnify" viewBox="0 0 144 143.999998" height="192" preserveAspectRatio="xMidYMid meet" version="1.0"><defs><clipPath id="32a29016a3"><path d="M 2 24.230469 L 143 24.230469 L 143 126.980469 L 2 126.980469 Z M 2 24.230469 " clip-rule="nonzero"/></clipPath></defs><g clip-path="url(#32a29016a3)"><path fill="#f652a0" d="M 127.496094 24.230469 L 54.527344 24.230469 C 52.714844 24.230469 50.917969 24.421875 49.140625 24.800781 C 47.367188 25.179688 45.652344 25.742188 43.992188 26.484375 C 42.335938 27.226562 40.777344 28.136719 39.3125 29.210938 C 37.847656 30.28125 36.511719 31.496094 35.304688 32.855469 L 6.398438 65.375 C 5.777344 66.074219 5.222656 66.824219 4.738281 67.625 C 4.253906 68.425781 3.84375 69.265625 3.511719 70.140625 C 3.179688 71.015625 2.929688 71.914062 2.761719 72.832031 C 2.589844 73.753906 2.507812 74.683594 2.507812 75.617188 C 2.507812 76.554688 2.589844 77.480469 2.761719 78.402344 C 2.929688 79.324219 3.179688 80.222656 3.511719 81.097656 C 3.84375 81.972656 4.253906 82.808594 4.738281 83.609375 C 5.222656 84.410156 5.777344 85.160156 6.398438 85.859375 L 35.304688 118.382812 C 36.511719 119.738281 37.847656 120.953125 39.3125 122.027344 C 40.777344 123.097656 42.335938 124.007812 43.992188 124.75 C 45.648438 125.492188 47.367188 126.054688 49.140625 126.433594 C 50.917969 126.816406 52.710938 127.003906 54.527344 127.003906 L 127.496094 127.003906 C 128.511719 127.003906 129.511719 126.90625 130.503906 126.707031 C 131.496094 126.511719 132.460938 126.21875 133.398438 125.832031 C 134.332031 125.445312 135.21875 124.96875 136.0625 124.40625 C 136.902344 123.84375 137.683594 123.203125 138.398438 122.488281 C 139.113281 121.773438 139.753906 120.996094 140.316406 120.152344 C 140.878906 119.3125 141.351562 118.421875 141.738281 117.488281 C 142.128906 116.550781 142.421875 115.589844 142.617188 114.597656 C 142.816406 113.601562 142.914062 112.601562 142.914062 111.589844 L 142.914062 39.648438 C 142.914062 38.636719 142.816406 37.632812 142.617188 36.640625 C 142.421875 35.648438 142.128906 34.683594 141.738281 33.746094 C 141.351562 32.8125 140.878906 31.925781 140.316406 31.082031 C 139.753906 30.242188 139.113281 29.460938 138.398438 28.746094 C 137.683594 28.03125 136.902344 27.390625 136.0625 26.828125 C 135.21875 26.265625 134.332031 25.792969 133.398438 25.40625 C 132.460938 25.015625 131.496094 24.726562 130.503906 24.527344 C 129.511719 24.328125 128.511719 24.230469 127.496094 24.230469 Z M 132.636719 111.589844 C 132.636719 111.925781 132.601562 112.261719 132.539062 112.589844 C 132.472656 112.921875 132.375 113.242188 132.246094 113.554688 C 132.117188 113.867188 131.957031 114.164062 131.769531 114.441406 C 131.582031 114.722656 131.371094 114.984375 131.132812 115.222656 C 130.894531 115.460938 130.632812 115.671875 130.351562 115.859375 C 130.070312 116.046875 129.777344 116.207031 129.464844 116.335938 C 129.152344 116.464844 128.832031 116.5625 128.5 116.628906 C 128.167969 116.695312 127.835938 116.726562 127.496094 116.726562 L 54.527344 116.726562 C 53.441406 116.726562 52.363281 116.613281 51.300781 116.386719 C 50.234375 116.15625 49.207031 115.820312 48.214844 115.375 C 47.222656 114.929688 46.285156 114.382812 45.410156 113.738281 C 44.53125 113.09375 43.730469 112.367188 43.007812 111.550781 L 14.078125 79.03125 C 13.660156 78.558594 13.339844 78.03125 13.117188 77.441406 C 12.890625 76.855469 12.78125 76.246094 12.78125 75.617188 C 12.78125 74.988281 12.890625 74.378906 13.117188 73.792969 C 13.339844 73.203125 13.660156 72.675781 14.078125 72.207031 L 42.980469 39.683594 C 43.707031 38.867188 44.507812 38.136719 45.386719 37.492188 C 46.265625 36.847656 47.203125 36.300781 48.199219 35.855469 C 49.195312 35.410156 50.226562 35.074219 51.292969 34.847656 C 52.359375 34.621094 53.4375 34.507812 54.527344 34.507812 L 127.496094 34.507812 C 127.835938 34.507812 128.167969 34.542969 128.5 34.605469 C 128.832031 34.671875 129.152344 34.769531 129.464844 34.898438 C 129.777344 35.027344 130.070312 35.1875 130.351562 35.375 C 130.632812 35.5625 130.894531 35.773438 131.132812 36.011719 C 131.371094 36.253906 131.582031 36.511719 131.769531 36.792969 C 131.957031 37.074219 132.117188 37.367188 132.246094 37.679688 C 132.375 37.992188 132.472656 38.3125 132.539062 38.644531 C 132.601562 38.976562 132.636719 39.308594 132.636719 39.648438 Z M 132.636719 111.589844 " fill-opacity="1" fill-rule="nonzero"/></g><path fill="#f652a0" d="M 110.574219 56.570312 C 110.335938 56.332031 110.078125 56.117188 109.796875 55.929688 C 109.515625 55.742188 109.222656 55.585938 108.910156 55.457031 C 108.597656 55.324219 108.277344 55.230469 107.945312 55.164062 C 107.613281 55.097656 107.28125 55.0625 106.941406 55.0625 C 106.605469 55.0625 106.273438 55.097656 105.941406 55.164062 C 105.609375 55.230469 105.289062 55.324219 104.976562 55.457031 C 104.664062 55.585938 104.367188 55.742188 104.089844 55.929688 C 103.808594 56.117188 103.546875 56.332031 103.308594 56.570312 L 91.527344 68.351562 L 79.742188 56.570312 C 79.503906 56.335938 79.242188 56.128906 78.964844 55.949219 C 78.683594 55.769531 78.386719 55.617188 78.078125 55.492188 C 77.769531 55.367188 77.449219 55.277344 77.121094 55.214844 C 76.792969 55.152344 76.464844 55.125 76.128906 55.125 C 75.796875 55.128906 75.464844 55.164062 75.140625 55.230469 C 74.8125 55.296875 74.496094 55.398438 74.1875 55.527344 C 73.878906 55.65625 73.585938 55.8125 73.308594 56 C 73.03125 56.183594 72.777344 56.394531 72.539062 56.632812 C 72.304688 56.867188 72.09375 57.125 71.90625 57.402344 C 71.722656 57.675781 71.5625 57.96875 71.433594 58.277344 C 71.304688 58.585938 71.207031 58.902344 71.140625 59.230469 C 71.074219 59.554688 71.039062 59.886719 71.035156 60.21875 C 71.03125 60.554688 71.0625 60.882812 71.125 61.210938 C 71.183594 61.539062 71.277344 61.859375 71.402344 62.167969 C 71.523438 62.480469 71.675781 62.773438 71.859375 63.054688 C 72.039062 63.335938 72.246094 63.59375 72.476562 63.835938 L 84.261719 75.617188 L 72.476562 87.402344 C 72.234375 87.636719 72.011719 87.898438 71.820312 88.175781 C 71.625 88.457031 71.460938 88.753906 71.328125 89.070312 C 71.191406 89.382812 71.089844 89.707031 71.019531 90.039062 C 70.949219 90.375 70.914062 90.710938 70.910156 91.050781 C 70.90625 91.394531 70.9375 91.730469 71 92.066406 C 71.066406 92.402344 71.164062 92.726562 71.292969 93.042969 C 71.421875 93.359375 71.578125 93.660156 71.769531 93.941406 C 71.957031 94.226562 72.171875 94.488281 72.414062 94.730469 C 72.65625 94.972656 72.917969 95.1875 73.203125 95.375 C 73.484375 95.566406 73.785156 95.722656 74.101562 95.851562 C 74.417969 95.980469 74.742188 96.078125 75.078125 96.144531 C 75.414062 96.207031 75.75 96.238281 76.09375 96.234375 C 76.433594 96.234375 76.769531 96.195312 77.105469 96.125 C 77.4375 96.054688 77.761719 95.953125 78.074219 95.820312 C 78.390625 95.683594 78.6875 95.519531 78.96875 95.324219 C 79.25 95.132812 79.507812 94.914062 79.742188 94.667969 L 91.527344 82.882812 L 103.308594 94.667969 C 103.550781 94.898438 103.808594 95.105469 104.089844 95.285156 C 104.371094 95.46875 104.664062 95.621094 104.976562 95.742188 C 105.285156 95.867188 105.605469 95.960938 105.933594 96.019531 C 106.261719 96.082031 106.589844 96.113281 106.925781 96.109375 C 107.257812 96.105469 107.589844 96.070312 107.914062 96.003906 C 108.242188 95.9375 108.558594 95.839844 108.867188 95.710938 C 109.175781 95.582031 109.46875 95.421875 109.742188 95.238281 C 110.019531 95.050781 110.277344 94.839844 110.511719 94.605469 C 110.75 94.367188 110.960938 94.113281 111.144531 93.835938 C 111.332031 93.558594 111.488281 93.265625 111.617188 92.957031 C 111.746094 92.648438 111.847656 92.332031 111.914062 92.007812 C 111.980469 91.679688 112.015625 91.347656 112.019531 91.015625 C 112.019531 90.679688 111.992188 90.351562 111.929688 90.023438 C 111.867188 89.695312 111.777344 89.375 111.652344 89.066406 C 111.527344 88.757812 111.375 88.460938 111.195312 88.179688 C 111.015625 87.902344 110.808594 87.640625 110.574219 87.402344 L 98.792969 75.617188 L 110.574219 63.835938 C 110.816406 63.597656 111.027344 63.335938 111.214844 63.054688 C 111.402344 62.777344 111.558594 62.480469 111.691406 62.167969 C 111.820312 61.855469 111.917969 61.535156 111.980469 61.203125 C 112.046875 60.875 112.082031 60.539062 112.082031 60.203125 C 112.082031 59.863281 112.046875 59.53125 111.980469 59.199219 C 111.917969 58.867188 111.820312 58.546875 111.691406 58.234375 C 111.558594 57.925781 111.402344 57.628906 111.214844 57.347656 C 111.027344 57.066406 110.816406 56.808594 110.574219 56.570312 Z M 110.574219 56.570312 " fill-opacity="1" fill-rule="nonzero"/></svg>