<svg xmlns="http://www.w3.org/2000/svg" xmlns:xlink="http://www.w3.org/1999/xlink" width="192" zoomAndPan="magnify" viewBox="0 0 144 143.999998" height="192" preserveAspectRatio="xMidYMid meet" version="1.0"><defs><clipPath id="9b6df62644"><path d="M 33.917969 23.410156 L 110.417969 23.410156 L 110.417969 120.910156 L 33.917969 120.910156 Z M 33.917969 23.410156 " clip-rule="nonzero"/></clipPath></defs><g clip-path="url(#9b6df62644)"><path fill="#ffffff" d="M 41.175781 26.359375 C 38.792969 26.359375 36.847656 28.304688 36.847656 30.6875 L 36.847656 113.300781 C 36.847656 115.683594 38.792969 117.628906 41.175781 117.628906 L 102.816406 117.628906 C 105.199219 117.628906 107.148438 115.707031 107.148438 113.320312 L 107.148438 30.6875 C 107.148438 28.304688 105.199219 26.359375 102.816406 26.359375 Z M 102.816406 120.558594 L 41.175781 120.558594 C 37.175781 120.558594 33.917969 117.300781 33.917969 113.300781 L 33.917969 30.6875 C 33.917969 26.6875 37.175781 23.429688 41.175781 23.429688 L 102.816406 23.429688 C 106.820312 23.429688 110.078125 26.6875 110.078125 30.6875 L 110.078125 113.320312 C 110.078125 117.300781 106.820312 120.558594 102.816406 120.558594 Z M 102.816406 120.558594 " fill-opacity="1" fill-rule="evenodd"/></g><path fill="#ffffff" d="M 44.414062 56.929688 L 99.753906 56.929688 L 99.753906 33.707031 L 44.414062 33.707031 Z M 101.242188 59.878906 L 42.949219 59.878906 C 42.136719 59.878906 41.480469 59.226562 41.480469 58.414062 L 41.480469 32.261719 C 41.480469 31.453125 42.136719 30.796875 42.949219 30.796875 L 101.222656 30.796875 C 102.03125 30.796875 102.6875 31.453125 102.6875 32.261719 L 102.6875 58.414062 C 102.707031 59.226562 102.050781 59.878906 101.242188 59.878906 Z M 101.242188 59.878906 " fill-opacity="1" fill-rule="evenodd"/><path fill="#ffffff" d="M 44.019531 75.382812 L 50.292969 75.382812 L 50.292969 69 L 44.019531 69 Z M 51.757812 78.335938 L 42.53125 78.335938 C 41.722656 78.335938 41.066406 77.679688 41.066406 76.871094 L 41.066406 67.535156 C 41.066406 66.726562 41.722656 66.070312 42.53125 66.070312 L 51.757812 66.070312 C 52.570312 66.070312 53.222656 66.726562 53.222656 67.535156 L 53.222656 76.871094 C 53.222656 77.679688 52.570312 78.335938 51.757812 78.335938 Z M 51.757812 78.335938 " fill-opacity="1" fill-rule="evenodd"/><path fill="#ffffff" d="M 44.019531 92.394531 L 50.292969 92.394531 L 50.292969 86.011719 L 44.019531 86.011719 Z M 51.757812 95.347656 L 42.53125 95.347656 C 41.722656 95.347656 41.066406 94.691406 41.066406 93.882812 L 41.066406 84.546875 C 41.066406 83.738281 41.722656 83.082031 42.53125 83.082031 L 51.757812 83.082031 C 52.570312 83.082031 53.222656 83.738281 53.222656 84.546875 L 53.222656 93.882812 C 53.222656 94.691406 52.570312 95.347656 51.757812 95.347656 Z M 51.757812 95.347656 " fill-opacity="1" fill-rule="evenodd"/><path fill="#ffffff" d="M 44.019531 109.234375 L 50.292969 109.234375 L 50.292969 102.847656 L 44.019531 102.847656 Z M 51.757812 112.183594 L 42.53125 112.183594 C 41.722656 112.183594 41.066406 111.527344 41.066406 110.71875 L 41.066406 101.382812 C 41.066406 100.574219 41.722656 99.917969 42.53125 99.917969 L 51.757812 99.917969 C 52.570312 99.917969 53.222656 100.574219 53.222656 101.382812 L 53.222656 110.71875 C 53.222656 111.527344 52.570312 112.183594 51.757812 112.183594 Z M 51.757812 112.183594 " fill-opacity="1" fill-rule="evenodd"/><path fill="#ffffff" d="M 60.660156 75.382812 L 66.914062 75.382812 L 66.914062 69 L 60.636719 69 L 60.636719 75.382812 Z M 68.398438 78.335938 L 59.195312 78.335938 C 58.386719 78.335938 57.730469 77.679688 57.730469 76.871094 L 57.730469 67.535156 C 57.730469 66.726562 58.386719 66.070312 59.195312 66.070312 L 68.398438 66.070312 C 69.207031 66.070312 69.863281 66.726562 69.863281 67.535156 L 69.863281 76.871094 C 69.863281 77.679688 69.207031 78.335938 68.398438 78.335938 Z M 68.398438 78.335938 " fill-opacity="1" fill-rule="evenodd"/><path fill="#ffffff" d="M 60.660156 92.394531 L 66.914062 92.394531 L 66.914062 86.011719 L 60.636719 86.011719 L 60.636719 92.394531 Z M 68.398438 95.347656 L 59.195312 95.347656 C 58.386719 95.347656 57.730469 94.691406 57.730469 93.882812 L 57.730469 84.546875 C 57.730469 83.738281 58.386719 83.082031 59.195312 83.082031 L 68.398438 83.082031 C 69.207031 83.082031 69.863281 83.738281 69.863281 84.546875 L 69.863281 93.882812 C 69.863281 94.691406 69.207031 95.347656 68.398438 95.347656 Z M 68.398438 95.347656 " fill-opacity="1" fill-rule="evenodd"/><path fill="#ffffff" d="M 60.660156 109.234375 L 66.914062 109.234375 L 66.914062 102.847656 L 60.636719 102.847656 L 60.636719 109.234375 Z M 68.398438 112.183594 L 59.195312 112.183594 C 58.386719 112.183594 57.730469 111.527344 57.730469 110.71875 L 57.730469 101.382812 C 57.730469 100.574219 58.386719 99.917969 59.195312 99.917969 L 68.398438 99.917969 C 69.207031 99.917969 69.863281 100.574219 69.863281 101.382812 L 69.863281 110.71875 C 69.863281 111.527344 69.207031 112.183594 68.398438 112.183594 Z M 68.398438 112.183594 " fill-opacity="1" fill-rule="evenodd"/><path fill="#ffffff" d="M 77.472656 75.382812 L 83.75 75.382812 L 83.75 69 L 77.472656 69 Z M 85.238281 78.335938 L 76.007812 78.335938 C 75.199219 78.335938 74.542969 77.679688 74.542969 76.871094 L 74.542969 67.535156 C 74.542969 66.726562 75.199219 66.070312 76.007812 66.070312 L 85.238281 66.070312 C 86.046875 66.070312 86.703125 66.726562 86.703125 67.535156 L 86.703125 76.871094 C 86.703125 77.679688 86.046875 78.335938 85.238281 78.335938 Z M 85.238281 78.335938 " fill-opacity="1" fill-rule="evenodd"/><path fill="#ffffff" d="M 93.917969 75.382812 L 100.191406 75.382812 L 100.191406 69 L 93.917969 69 Z M 101.65625 78.335938 L 92.429688 78.335938 C 91.621094 78.335938 90.964844 77.679688 90.964844 76.871094 L 90.964844 67.535156 C 90.964844 66.726562 91.621094 66.070312 92.429688 66.070312 L 101.65625 66.070312 C 102.46875 66.070312 103.125 66.726562 103.125 67.535156 L 103.125 76.871094 C 103.125 77.679688 102.46875 78.335938 101.65625 78.335938 Z M 101.65625 78.335938 " fill-opacity="1" fill-rule="evenodd"/><path fill="#ffffff" d="M 77.472656 92.394531 L 83.75 92.394531 L 83.75 86.011719 L 77.472656 86.011719 Z M 85.238281 95.347656 L 76.007812 95.347656 C 75.199219 95.347656 74.542969 94.691406 74.542969 93.882812 L 74.542969 84.546875 C 74.542969 83.738281 75.199219 83.082031 76.007812 83.082031 L 85.238281 83.082031 C 86.046875 83.082031 86.703125 83.738281 86.703125 84.546875 L 86.703125 93.882812 C 86.703125 94.691406 86.046875 95.347656 85.238281 95.347656 Z M 85.238281 95.347656 " fill-opacity="1" fill-rule="evenodd"/><path fill="#ffffff" d="M 77.472656 109.234375 L 83.75 109.234375 L 83.75 102.847656 L 77.472656 102.847656 Z M 85.238281 112.183594 L 76.007812 112.183594 C 75.199219 112.183594 74.542969 111.527344 74.542969 110.71875 L 74.542969 101.382812 C 74.542969 100.574219 75.199219 99.917969 76.007812 99.917969 L 85.238281 99.917969 C 86.046875 99.917969 86.703125 100.574219 86.703125 101.382812 L 86.703125 110.71875 C 86.703125 111.527344 86.046875 112.183594 85.238281 112.183594 Z M 85.238281 112.183594 " fill-opacity="1" fill-rule="evenodd"/><path fill="#ffffff" d="M 93.917969 109.234375 L 99.582031 109.234375 L 99.582031 85.617188 L 93.917969 85.617188 Z M 101.046875 112.183594 L 92.429688 112.183594 C 91.621094 112.183594 90.964844 111.527344 90.964844 110.71875 L 90.964844 84.152344 C 90.964844 83.34375 91.621094 82.6875 92.429688 82.6875 L 101.046875 82.6875 C 101.855469 82.6875 102.511719 83.34375 102.511719 84.152344 L 102.511719 110.71875 C 102.511719 111.527344 101.855469 112.183594 101.046875 112.183594 Z M 101.046875 112.183594 " fill-opacity="1" fill-rule="evenodd"/></svg>