<svg xmlns="http://www.w3.org/2000/svg" xmlns:xlink="http://www.w3.org/1999/xlink" width="192" zoomAndPan="magnify" viewBox="0 0 144 143.999998" height="192" preserveAspectRatio="xMidYMid meet" version="1.0"><defs><clipPath id="a337dd8d75"><path d="M 8.175781 9.054688 L 135.675781 9.054688 L 135.675781 135 L 8.175781 135 Z M 8.175781 9.054688 " clip-rule="nonzero"/></clipPath></defs><g clip-path="url(#a337dd8d75)"><path fill="#f652a0" d="M 28.140625 119.921875 C 34.664062 124.441406 41.867188 127.039062 48.429688 127.238281 C 48.699219 127.246094 48.964844 127.25 49.230469 127.25 C 56.75 127.25 62.558594 123.984375 65.648438 117.992188 C 67.136719 115.109375 67.78125 111.980469 68.40625 108.957031 C 68.675781 107.65625 68.953125 106.308594 69.292969 105.03125 C 70.609375 100.070312 72.585938 96.703125 75.339844 94.738281 C 77.148438 93.449219 80.074219 93.113281 83.460938 92.726562 C 87.277344 92.289062 91.933594 91.75 96.621094 89.605469 C 96.257812 91.359375 95.917969 92.972656 95.679688 94.097656 C 91.175781 95.617188 87.628906 99.984375 86.410156 105.523438 C 85.367188 110.257812 85.976562 115.003906 86.753906 119.855469 L 86.894531 120.714844 C 87.558594 124.835938 88.246094 129.097656 87.730469 133.160156 C 87.652344 133.757812 87.925781 134.347656 88.433594 134.671875 C 88.691406 134.839844 88.984375 134.921875 89.28125 134.921875 C 89.574219 134.921875 89.847656 134.84375 90.101562 134.691406 C 91.386719 133.898438 92.722656 133.121094 94.015625 132.367188 C 96.941406 130.65625 99.972656 128.894531 102.757812 126.789062 C 107.59375 123.136719 110.8125 119.039062 112.320312 114.613281 C 114.066406 109.503906 113.105469 103.148438 110.121094 99.222656 L 114.734375 87.863281 C 115.066406 87.742188 115.355469 87.507812 115.539062 87.191406 C 119.695312 80.117188 124.765625 67.277344 128.765625 53.671875 C 133.316406 38.210938 135.816406 24.277344 135.804688 14.441406 C 135.804688 12.183594 134.433594 10.203125 132.3125 9.398438 C 130.207031 8.601562 127.886719 9.171875 126.398438 10.851562 C 120.230469 17.8125 113.808594 29.324219 108.3125 43.273438 C 103.015625 56.710938 99.339844 70.664062 98.207031 81.605469 C 98 82.75 97.703125 84.269531 97.375 85.886719 C 97.148438 85.898438 96.925781 85.957031 96.714844 86.070312 C 92.035156 88.59375 87.285156 89.136719 83.097656 89.621094 C 79.277344 90.058594 75.980469 90.433594 73.515625 92.195312 C 70.144531 94.605469 67.773438 98.542969 66.265625 104.234375 C 65.90625 105.59375 65.617188 106.980469 65.339844 108.328125 C 64.730469 111.277344 64.15625 114.058594 62.867188 116.5625 C 59.515625 123.0625 53.214844 124.253906 48.519531 124.113281 C 42.640625 123.9375 35.863281 121.472656 29.914062 117.351562 C 23.550781 112.945312 18.449219 106.894531 15.550781 100.324219 C 11.933594 92.121094 10.535156 81.558594 11.710938 71.34375 C 13.167969 58.730469 18.457031 47.21875 27.007812 38.058594 C 35.058594 29.433594 46.820312 23.433594 59.273438 21.605469 C 71.296875 19.839844 84.230469 21.796875 95.703125 27.125 C 98.507812 28.425781 101.144531 29.910156 103.535156 31.53125 C 104.25 32.015625 105.222656 31.828125 105.707031 31.113281 C 106.191406 30.398438 106.007812 29.425781 105.289062 28.941406 C 102.761719 27.226562 99.980469 25.660156 97.019531 24.285156 C 85.003906 18.707031 71.4375 16.65625 58.820312 18.507812 C 45.484375 20.46875 33.375 26.652344 24.722656 35.921875 C 15.710938 45.574219 10.136719 57.695312 8.609375 70.980469 C 7.367188 81.730469 8.855469 92.882812 12.691406 101.582031 C 15.820312 108.675781 21.304688 115.1875 28.136719 119.917969 Z M 111.46875 87.601562 L 107.609375 97.097656 L 98.710938 94.859375 C 99.195312 92.570312 100.136719 88.078125 100.8125 84.644531 C 103.746094 86.316406 107.382812 87.023438 111.464844 87.601562 Z M 109.367188 113.601562 C 108.0625 117.425781 105.207031 121.019531 100.878906 124.289062 C 98.242188 126.28125 95.292969 128 92.441406 129.660156 C 91.980469 129.933594 91.511719 130.207031 91.039062 130.484375 C 91.078125 127.007812 90.523438 123.566406 89.980469 120.214844 L 89.84375 119.355469 C 89.117188 114.816406 88.539062 110.394531 89.464844 106.191406 C 90.546875 101.273438 93.441406 98.449219 96.019531 97.316406 C 96.160156 97.410156 96.316406 97.480469 96.488281 97.523438 L 106.820312 100.125 C 106.882812 100.222656 106.949219 100.316406 107.03125 100.402344 C 109.863281 103.34375 110.886719 109.140625 109.363281 113.601562 Z M 128.742188 12.925781 C 129.6875 11.859375 130.867188 12.195312 131.207031 12.324219 C 131.917969 12.59375 132.679688 13.296875 132.683594 14.445312 C 132.703125 35.296875 121.183594 70.730469 113.363281 84.710938 C 108.480469 84.046875 104.238281 83.371094 101.390625 81.296875 C 103.902344 58.742188 116.808594 26.398438 128.742188 12.929688 Z M 128.742188 12.925781 " fill-opacity="1" fill-rule="nonzero"/></g><path fill="#f652a0" d="M 40.675781 114.460938 C 41.328125 114.570312 41.984375 114.625 42.640625 114.625 C 46.523438 114.625 50.398438 112.746094 52.714844 109.613281 C 54.445312 107.269531 55.265625 104.359375 54.957031 101.625 C 54.625 98.644531 53.230469 96.050781 51.042969 94.324219 C 45.027344 89.585938 38.46875 90.355469 34.644531 93.222656 C 30.957031 95.980469 29.34375 101.105469 30.714844 105.6875 C 32.050781 110.148438 36.050781 113.675781 40.671875 114.460938 Z M 36.519531 95.726562 C 37.886719 94.703125 39.738281 94.050781 41.8125 94.050781 C 44.09375 94.050781 46.640625 94.839844 49.109375 96.78125 C 51.066406 98.324219 51.679688 100.457031 51.851562 101.972656 C 52.070312 103.933594 51.46875 106.039062 50.203125 107.753906 C 48.175781 110.496094 44.558594 111.949219 41.203125 111.378906 C 37.78125 110.796875 34.699219 108.089844 33.714844 104.789062 C 32.726562 101.492188 33.90625 97.683594 36.523438 95.726562 Z M 36.519531 95.726562 " fill-opacity="1" fill-rule="nonzero"/><path fill="#f652a0" d="M 39.914062 80.765625 C 43.402344 73.945312 41.375 67.664062 37.824219 64.460938 C 34.410156 61.382812 29.066406 60.789062 24.835938 63.019531 C 20.71875 65.191406 18.03125 69.796875 18.152344 74.484375 C 18.269531 79.039062 21.117188 83.410156 25.234375 85.359375 C 26.835938 86.117188 28.578125 86.503906 30.285156 86.503906 C 31.386719 86.503906 32.480469 86.339844 33.507812 86.015625 C 36.371094 85.113281 38.644531 83.246094 39.914062 80.765625 Z M 26.574219 82.535156 C 23.496094 81.074219 21.371094 77.8125 21.28125 74.40625 C 21.1875 70.933594 23.253906 67.390625 26.296875 65.785156 C 27.535156 65.132812 28.925781 64.8125 30.304688 64.8125 C 32.3125 64.8125 34.292969 65.488281 35.730469 66.785156 C 38.394531 69.1875 39.863281 74.003906 37.132812 79.34375 C 35.996094 81.558594 34.023438 82.578125 32.570312 83.035156 C 30.691406 83.628906 28.507812 83.445312 26.578125 82.535156 Z M 26.574219 82.535156 " fill-opacity="1" fill-rule="nonzero"/><path fill="#f652a0" d="M 74.15625 27.933594 C 69.621094 28.386719 65.476562 31.550781 63.835938 35.804688 C 62.789062 38.523438 62.773438 41.546875 63.796875 44.101562 C 64.910156 46.886719 66.9375 49.019531 69.507812 50.097656 C 71.6875 51.015625 73.773438 51.410156 75.707031 51.410156 C 80.039062 51.410156 83.585938 49.417969 85.609375 46.804688 C 88.429688 43.171875 88.625 37.800781 86.085938 33.746094 C 83.613281 29.796875 78.816406 27.460938 74.152344 27.933594 Z M 83.140625 44.890625 C 80.945312 47.726562 76.25 49.542969 70.722656 47.214844 C 68.425781 46.25 67.265625 44.359375 66.699219 42.941406 C 65.96875 41.113281 65.988281 38.921875 66.753906 36.929688 C 67.980469 33.75 71.082031 31.382812 74.46875 31.046875 C 74.753906 31.015625 75.042969 31.003906 75.328125 31.003906 C 78.519531 31.003906 81.757812 32.734375 83.433594 35.410156 C 85.261719 38.324219 85.136719 42.316406 83.136719 44.890625 Z M 83.140625 44.890625 " fill-opacity="1" fill-rule="nonzero"/><path fill="#f652a0" d="M 57.542969 41.835938 C 56.585938 37.335938 52.609375 33.722656 47.875 33.046875 C 43.261719 32.390625 38.382812 34.546875 35.734375 38.410156 C 33.15625 42.167969 32.898438 47.375 35.089844 51.371094 C 36.492188 53.925781 38.792969 55.886719 41.40625 56.757812 C 42.613281 57.15625 43.839844 57.359375 45.035156 57.359375 C 46.664062 57.359375 48.242188 56.992188 49.671875 56.265625 C 56.496094 52.789062 58.546875 46.511719 57.546875 41.835938 Z M 48.25 53.476562 C 46.03125 54.605469 43.835938 54.269531 42.390625 53.789062 C 40.519531 53.164062 38.859375 51.738281 37.832031 49.867188 C 36.191406 46.878906 36.386719 42.984375 38.3125 40.175781 C 40.050781 37.644531 43.179688 36.054688 46.234375 36.054688 C 46.636719 36.054688 47.039062 36.085938 47.433594 36.140625 C 50.839844 36.625 53.808594 39.296875 54.488281 42.484375 C 55.234375 45.992188 53.597656 50.753906 48.253906 53.476562 Z M 48.25 53.476562 " fill-opacity="1" fill-rule="nonzero"/></svg>